<svg xmlns="http://www.w3.org/2000/svg" width="430" height="79" viewBox="0 0 430 79" fill="none"><path d="M122.461 21.0615L127.009 55.8967H121.198L118.924 35.7201L108.775 52.8218L98.7103 35.7201L96.4362 55.8967H90.667L95.215 21.0615L108.775 43.597L122.461 21.0615ZM153.623 21.0615L169.836 56.0652H163.52L159.73 47.6407H147.391L143.643 56.0652H137.326L153.623 21.0615ZM153.623 32.2661L149.118 42.7967H158.129L153.623 32.2661ZM201.209 40.2272C200.398 39.3423 199.479 38.5638 198.472 37.9105C197.534 37.3803 196.547 36.9429 195.524 36.6047L192.071 35.2146C191.235 34.8428 190.443 34.3764 189.713 33.8246C189.177 33.4155 188.732 32.899 188.407 32.3082C188.115 31.7653 187.97 31.1554 187.986 30.5391C187.97 29.9174 188.131 29.3039 188.45 28.7699C188.794 28.1924 189.309 27.7361 189.923 27.4641C190.731 27.1066 191.609 26.9339 192.492 26.9587C193.504 26.9206 194.507 27.1533 195.398 27.6326C196.222 28.0593 196.964 28.6299 197.588 29.3175C198.183 30.021 198.705 30.7831 199.146 31.5921L203.694 29.0648C203.099 27.8296 202.318 26.6931 201.378 25.695C200.25 24.4973 198.885 23.5488 197.369 22.9105C195.853 22.2721 194.221 21.9579 192.576 21.9882C190.735 21.959 188.91 22.3328 187.228 23.0834C185.736 23.7906 184.457 24.8806 183.523 26.2426C182.587 27.6197 182.101 29.2533 182.133 30.9182C182.09 32.2964 182.409 33.6617 183.059 34.8777C183.585 36.0326 184.345 37.0654 185.291 37.9105C186.156 38.6453 187.12 39.255 188.155 39.7217C189.165 40.171 190.092 40.5501 190.934 40.859C192.188 41.2992 193.411 41.8198 194.598 42.4176C195.561 42.8486 196.412 43.4975 197.082 44.3131C197.711 45.1633 198.023 46.2058 197.967 47.2616C197.985 48.0788 197.766 48.8838 197.335 49.5784C196.906 50.2557 196.292 50.7964 195.566 51.1369C194.716 51.504 193.798 51.6905 192.871 51.6845C191.688 51.6847 190.52 51.4108 189.46 50.8842C188.404 50.2995 187.463 49.5289 186.681 48.6095C185.785 47.5823 184.995 46.4675 184.323 45.2819L180.112 48.2304C180.859 49.7854 181.854 51.2081 183.059 52.4427C184.265 53.7147 185.692 54.7566 187.27 55.5176C189.357 56.528 191.687 56.9259 193.99 56.6649C196.293 56.404 198.475 55.4949 200.283 54.0433C201.323 53.1923 202.17 52.1297 202.767 50.9263C203.422 49.6214 203.741 48.1734 203.694 46.714C203.724 45.3963 203.466 44.0878 202.936 42.8809C202.478 41.8138 201.804 40.8529 200.957 40.0587L201.209 40.2272ZM233.172 22.1567C230.851 22.1321 228.548 22.5614 226.392 23.4204C224.351 24.2252 222.49 25.4279 220.917 26.9587C219.34 28.5024 218.094 30.3512 217.254 32.3924C216.374 34.5884 215.93 36.9348 215.948 39.3005C216.004 41.7246 216.533 44.1143 217.506 46.3349C218.346 48.3762 219.593 50.225 221.17 51.7687C222.742 53.2995 224.603 54.5022 226.645 55.307C228.801 56.166 231.104 56.5953 233.425 56.5707C235.486 56.6356 237.541 56.3215 239.489 55.644C241.13 55.0399 242.654 54.1564 243.994 53.0324V46.3349C243.212 47.2415 242.321 48.048 241.341 48.7359C240.281 49.4769 239.117 50.0588 237.888 50.4629C236.52 50.8598 235.102 51.0584 233.677 51.0526C232.235 51.0574 230.806 50.7857 229.466 50.2523C228.118 49.6877 226.889 48.873 225.844 47.8513C224.769 46.8173 223.922 45.5688 223.36 44.1867C222.723 42.6525 222.407 41.0037 222.433 39.3426C222.343 37.6926 222.601 36.042 223.191 34.4986C223.764 33.1094 224.609 31.849 225.676 30.7918C226.723 29.7828 227.952 28.9822 229.298 28.4329C230.635 27.8861 232.064 27.6002 233.509 27.5905C234.937 27.5779 236.358 27.7912 237.72 28.2223C238.947 28.6122 240.11 29.1799 241.173 29.9072C242.164 30.5978 243.056 31.4197 243.826 32.3503V25.6529C242.475 24.5439 240.954 23.6619 239.32 23.0413C237.365 22.3966 235.313 22.0972 233.256 22.1567H233.172ZM277.936 44.7764C277.959 46.012 277.7 47.2365 277.178 48.3568C276.724 49.3574 275.974 50.1951 275.031 50.7578C273.93 51.3419 272.697 51.6321 271.451 51.6002C270.205 51.636 268.971 51.3456 267.872 50.7578C266.925 50.1857 266.165 49.3518 265.682 48.3568C265.175 47.2331 264.93 46.0087 264.966 44.7764V22.7464H259.155V44.987C259.123 46.6719 259.424 48.3465 260.039 49.9153C260.559 51.3319 261.411 52.603 262.523 53.6221C263.618 54.6635 264.925 55.454 266.356 55.9388C267.923 56.4941 269.578 56.7651 271.241 56.7392C272.903 56.7616 274.557 56.4906 276.125 55.9388C277.551 55.4445 278.857 54.6551 279.958 53.6221C281.043 52.58 281.891 51.3155 282.442 49.9153C283.057 48.3465 283.358 46.6719 283.326 44.987V22.7464H277.936V44.7764ZM304.593 22.7464H298.992V55.8967H317.774V50.8842H304.593V22.7464ZM330.323 55.8967H335.966V22.7464H330.323V55.8967ZM376.098 44.987L351.884 21.0615V55.8967H357.358V33.6982L381.572 57.6659V22.7464H376.098V44.987ZM428.737 32.3503C430.422 36.758 430.422 41.6324 428.737 46.0401C427.918 48.0944 426.685 49.9583 425.115 51.516C423.568 53.1079 421.702 54.3565 419.641 55.1806C415.23 56.9218 410.323 56.9218 405.913 55.1806C403.857 54.3456 401.994 53.0985 400.438 51.516C398.882 49.9559 397.663 48.0919 396.859 46.0401C395.966 43.8627 395.522 41.5274 395.553 39.1741C395.526 36.835 395.97 34.5143 396.859 32.3503C397.678 30.296 398.911 28.4321 400.48 26.8744C402.062 25.3446 403.92 24.1295 405.955 23.294C408.107 22.4856 410.394 22.0995 412.693 22.1567C415.027 22.1363 417.343 22.5653 419.515 23.4204C421.562 24.2557 423.434 25.4705 425.031 27.0008C426.601 28.5585 427.834 30.4224 428.653 32.4767L428.737 32.3503ZM423.136 44.0182C423.706 42.5111 423.991 40.9116 423.978 39.3005C423.983 37.6901 423.698 36.0919 423.136 34.5828C422.63 33.187 421.842 31.9107 420.82 30.8339C419.808 29.7819 418.589 28.9502 417.241 28.3908C415.803 27.7809 414.254 27.4796 412.693 27.5062C411.118 27.4859 409.556 27.7869 408.102 28.3908C406.76 28.9605 405.543 29.7909 404.523 30.8339C403.516 31.9218 402.729 33.195 402.207 34.5828C401.628 36.0872 401.342 37.6886 401.365 39.3005C401.331 40.9133 401.617 42.5167 402.207 44.0182C402.719 45.4109 403.507 46.6859 404.523 47.7671C405.541 48.8227 406.758 49.6672 408.102 50.2523C409.543 50.8517 411.09 51.1526 412.65 51.1369C414.198 51.1577 415.732 50.8564 417.156 50.2523C418.507 49.6773 419.725 48.8315 420.736 47.7671C421.765 46.6883 422.567 45.4134 423.094 44.0182" fill="#AA783D"></path><path d="M31.4993 78.4318L6.23248 62.5938C4.37516 61.4198 2.83515 59.8067 1.74825 57.8968C0.661355 55.9869 0.0609564 53.8388 0 51.642L0 0H31.4572V6.14986H6.19037V51.5578C6.20956 52.7248 6.51534 53.8692 7.08079 54.8903C7.64624 55.9113 8.454 56.7775 9.43295 57.4128L31.4572 71.1868L52.7234 57.4128C53.6873 56.7954 54.4838 55.9495 55.0422 54.9501C55.6005 53.9507 55.9034 52.8288 55.9239 51.6841V29.8226H62.0721V51.6841C62.0575 53.8549 61.4985 55.9873 60.4464 57.8859C59.3944 59.7846 57.8828 61.3888 56.0502 62.5517L31.4993 78.4318ZM31.1203 21.3982C29.163 21.3982 27.2497 21.9787 25.6223 23.0664C23.9949 24.1541 22.7264 25.7001 21.9774 27.5088C21.2284 29.3176 21.0324 31.3079 21.4143 33.2281C21.7961 35.1482 22.7386 36.912 24.1226 38.2964C25.5067 39.6808 27.27 40.6235 29.1896 41.0055C31.1093 41.3874 33.0991 41.1914 34.9074 40.4422C36.7157 39.693 38.2613 38.4242 39.3487 36.7964C40.4361 35.1685 41.0165 33.2547 41.0165 31.2969C41.0165 29.997 40.7605 28.7098 40.2632 27.5088C39.7658 26.3079 39.0369 25.2166 38.1179 24.2974C37.199 23.3783 36.1081 22.6491 34.9074 22.1517C33.7067 21.6542 32.4199 21.3982 31.1203 21.3982ZM31.1203 15.2483C34.2936 15.2483 37.3956 16.1895 40.0341 17.953C42.6726 19.7164 44.729 22.2229 45.9434 25.1554C47.1578 28.0879 47.4755 31.3147 46.8564 34.4278C46.2374 37.541 44.7093 40.4006 42.4654 42.645C40.2216 44.8894 37.3627 46.4179 34.2504 47.0372C31.1381 47.6564 27.9121 47.3386 24.9804 46.1239C22.0486 44.9092 19.5428 42.8522 17.7798 40.213C16.0169 37.5739 15.0759 34.471 15.0759 31.2969C15.087 27.044 16.7809 22.9684 19.7875 19.9611C22.794 16.9538 26.8685 15.2594 31.1203 15.2483ZM55.9239 0H41.4797V6.14986H55.9239V19.629H62.0721V0H55.9239Z" fill="#AA783D"></path></svg>